<?xml version="1.0" encoding="iso-8859-1"?>
<!-- Generator: Adobe Illustrator 17.0.0, SVG Export Plug-In . SVG Version: 6.00 Build 0)  -->
<!DOCTYPE svg PUBLIC "-//W3C//DTD SVG 1.1//EN" "http://www.w3.org/Graphics/SVG/1.1/DTD/svg11.dtd">
<svg version="1.1" id="Layer_1" xmlns="http://www.w3.org/2000/svg" xmlns:xlink="http://www.w3.org/1999/xlink" x="0px" y="0px"
	 width="503.243px" height="331.942px" viewBox="0 0 503.243 331.942" style="enable-background:new 0 0 503.243 331.942;"
	 xml:space="preserve">
<g style="opacity:0.2;">
	
		<image style="overflow:visible;" width="2361" height="1641" xlink:href="CBF3C1B3442A1B35.png"  transform="matrix(0.24 0 0 0.24 -31.3393 -31.8981)">
	</image>
</g>
<path style="fill:#F2CDD7;stroke:#FFFFFF;stroke-width:5;stroke-miterlimit:10;" d="M480.873,320.212
	c7.188-22.804,11.073-47.073,11.073-72.252c0-132.589-107.485-240.074-240.074-240.074S11.797,115.371,11.797,247.96
	c0,25.179,3.885,49.448,11.073,72.252H480.873z"/>
<g>
	<g>
		<path style="fill:#736C6D;" d="M422.485,285.401H137.312c-5.811,0-10.522-4.711-10.522-10.522V136.896
			c0-5.811,4.711-10.522,10.522-10.522h285.173c5.811,0,10.522,4.711,10.522,10.522v137.983
			C433.008,280.69,428.297,285.401,422.485,285.401z"/>
		<circle style="fill:#876366;" cx="169.1" cy="168.954" r="32.68"/>
		<circle style="fill:#9E7575;" cx="242.966" cy="168.954" r="32.68"/>
		<circle style="fill:#C6A7A9;" cx="316.832" cy="168.954" r="32.68"/>
		<circle style="fill:#CE898D;" cx="390.698" cy="168.954" r="32.68"/>
		<circle style="fill:#A0886A;" cx="169.1" cy="242.82" r="32.68"/>
		<circle style="fill:#B6A08D;" cx="242.966" cy="242.82" r="32.68"/>
		<circle style="fill:#B29287;" cx="316.832" cy="242.82" r="32.68"/>
		<circle style="fill:#C2A36F;" cx="390.698" cy="242.82" r="32.68"/>
	</g>
	<g>
		<path style="fill:#93B79F;" d="M168.61,116.815h-37.355c-10.505,0-19.101,8.595-19.101,19.101v17.328
			c0,10.505,8.595,19.101,19.101,19.101h37.355c10.505,0,19.101-8.595,19.101-19.101v-17.328
			C187.711,125.411,179.115,116.815,168.61,116.815z M178.152,153.244c0,5.262-4.28,9.542-9.542,9.542h-37.354
			c-5.262,0-9.542-4.281-9.542-9.542v-17.328c0-5.262,4.28-9.542,9.542-9.542h37.354c5.262,0,9.542,4.281,9.542,9.542V153.244z"/>
		<g>
			<g>
				
					<circle style="fill:#82AD99;stroke:#FDFDFE;stroke-width:2;stroke-linecap:round;stroke-linejoin:round;stroke-miterlimit:10;" cx="149.932" cy="222.412" r="79.198"/>
				<circle style="fill:#EDEDED;" cx="149.932" cy="222.412" r="60.081"/>
			</g>
			<g>
				<g>
					<path style="fill:none;stroke:#FFFFFF;stroke-width:2;stroke-linecap:round;stroke-linejoin:round;stroke-miterlimit:10;" d="
						M122.654,289.465c-26.448-10.77-45.092-36.734-45.092-67.053"/>
					<path style="fill:none;stroke:#FFFFFF;stroke-width:2;stroke-linecap:round;stroke-linejoin:round;stroke-miterlimit:10;" d="
						M133.772,292.971c-2.003-0.457-3.974-0.997-5.91-1.616"/>
					<path style="fill:none;stroke:#FFFFFF;stroke-width:2;stroke-linecap:round;stroke-linejoin:round;stroke-miterlimit:10;" d="
						M149.932,294.782c-3.783,0-7.498-0.29-11.125-0.85"/>
				</g>
				<g>
					
						<line style="fill:none;stroke:#FFFFFF;stroke-width:2;stroke-linecap:round;stroke-linejoin:round;stroke-miterlimit:10;" x1="117.161" y1="213.081" x2="156.987" y2="173.255"/>
					<g>
						
							<line style="fill:none;stroke:#FFFFFF;stroke-width:2;stroke-linecap:round;stroke-linejoin:round;stroke-miterlimit:10;" x1="152.209" y1="187.365" x2="165.067" y2="174.507"/>
						
							<line style="fill:none;stroke:#FFFFFF;stroke-width:2;stroke-linecap:round;stroke-linejoin:round;stroke-miterlimit:10;" x1="142.991" y1="196.582" x2="147.771" y2="191.802"/>
						
							<line style="fill:none;stroke:#FFFFFF;stroke-width:2;stroke-linecap:round;stroke-linejoin:round;stroke-miterlimit:10;" x1="117.161" y1="222.412" x2="139.008" y2="200.565"/>
					</g>
				</g>
			</g>
		</g>
	</g>
	<g>
		<path style="fill:#3A3535;" d="M254.874,174.815c5.311,1.77,5.311,5.902,5.311,5.902s0,105.335,0,110.057
			c0,4.721-3.541,4.721-3.541,4.721h-14.164h-35.41h-14.164c0,0-3.541,0-3.541-4.721c0-4.721,0-110.057,0-110.057
			s0-4.131,5.311-5.902C194.679,174.815,219.496,174.815,254.874,174.815z"/>
		<path style="fill:#494242;" d="M254.057,174.971v-52.068c0,0-26.241,0-56.561,0v52.816"/>
		<path style="fill:#E0828D;" d="M243.13,123.459c0,0,1.024-44.693-3.412-52.54c-4.435-7.847-18.423-17.4-22.176-17.4
			c-3.753,0-6.482,8.188-6.482,8.188s-6.823,13.647-4.094,61.752"/>
		
			<line style="fill:none;stroke:#FFFFFF;stroke-width:2;stroke-linecap:round;stroke-miterlimit:10;" x1="206.321" y1="131.214" x2="206.321" y2="162.323"/>
		
			<line style="fill:none;stroke:#FFFFFF;stroke-width:2;stroke-linecap:round;stroke-linejoin:round;stroke-miterlimit:10;" x1="198.783" y1="275.5" x2="198.783" y2="283.544"/>
		
			<line style="fill:none;stroke:#FFFFFF;stroke-width:2;stroke-linecap:round;stroke-linejoin:round;stroke-miterlimit:10;" x1="198.783" y1="186.789" x2="198.783" y2="266.009"/>
	</g>
</g>
</svg>
